<!-- icon666.com - MILLIONS vector ICONS FREE --><svg version="1.1" id="Capa_1" xmlns="http://www.w3.org/2000/svg" xmlns:xlink="http://www.w3.org/1999/xlink" x="0px" y="0px" viewBox="0 0 512 512" style="enable-background:new 0 0 512 512;" xml:space="preserve"><polygon style="fill:#91969C;" points="417.327,177.026 417.327,74.019 387.327,74.019 387.327,177.026 322.194,213.733 322.194,288.91 352.194,288.91 352.194,231.263 402.327,203.009 452.46,231.263 452.46,288.91 482.46,288.91 482.46,213.733 "></polygon><polygon style="fill:#FFAB00;" points="384.592,17.911 169.305,17.911 149.289,52.021 169.305,86.132 384.592,86.132 "></polygon><polygon style="fill:#FFCF17;" points="132.612,86.132 169.305,86.132 169.305,17.911 102.329,17.911 54.456,75.714 123.512,242.431 186.539,216.324 "></polygon><polygon style="fill:#FFAB00;" points="225.239,311.487 149.289,311.487 169.305,512 243.21,512 "></polygon><polygon style="fill:#FFCF17;" points="113.371,311.488 95.4,512 169.305,512 169.305,311.487 "></polygon><g><circle style="fill:#DCE4EC;" cx="402.33" cy="52.02" r="52.02"></circle><path style="fill:#DCE4EC;" d="M237.169,291.961c15.525-37.48-2.274-80.449-39.753-95.973c-9.202-3.812-18.734-5.604-28.11-5.6 l-20.016,73.463l20.016,73.463C198.119,337.302,225.455,320.239,237.169,291.961z"></path></g><g><path style="fill:#F7F7F8;" d="M101.442,235.741c-15.525,37.48,2.274,80.449,39.753,95.973c9.202,3.812,18.734,5.604,28.11,5.6 V190.388C140.491,190.399,113.155,207.463,101.442,235.741z"></path><circle style="fill:#F7F7F8;" cx="81.56" cy="52.02" r="52.02"></circle></g></svg>